# xmcd CD database file
# Copyright (C) 1993-1998 Ti Kan
#
# Track frame offsets:
#  183
#  11668
#  29398
#  41140
#  54128
#  63628
#  76325
#  90318
#  103270
#  116168
#  127805
#  145115
#  156535
#  170248
#  184865
#  212978
#
# Disc length: 3183 seconds
#
# Revision: 2
# Processed by: cddbd v1.5.1PL2 Copyright (c) Steve Scherf et al.
# Submitted via: KiC 2.1 - (C) 1996-1998 Alwin Hoogerdijk
#
DISCID=e30c6d10
DTITLE=Del Rey and the Blues Gators - Chartreuse
DYEAR=1991
DGENRE=blues
TTITLE0=Down Boy Down
TTITLE1=Why Did It Happen To Me ?
TTITLE2=Try And Get It
TTITLE3=Cherokee
TTITLE4=Uptown Lowdown
TTITLE5=Three Bears
TTITLE6=Uncle In Harlem
TTITLE7=Your Concience Tells Me So
TTITLE8=Calypso Be (Modern Dance)
TTITLE9=Chartreuse
TTITLE10=Money
TTITLE11=Flippety Flop Flop
TTITLE12=Stop That Shouting (In The Amen Corner)
TTITLE13=Poisen Ivy
TTITLE14=I'm Mad At You/Black Rat Swing
TTITLE15=Train Blues, (Live)
EXTD=
EXTT0=
EXTT1=
EXTT2=
EXTT3=
EXTT4=
EXTT5=
EXTT6=
EXTT7=
EXTT8=
EXTT9=
EXTT10=
EXTT11=
EXTT12=
EXTT13=
EXTT14=
EXTT15=
PLAYORDER=
